# xmcd
#
# Track frame offsets: 
#        150
#        13505
#        31628
#        49230
#        66573
#        91043
#        113845
#        151768
#        182379
#        205490
#        231013
#        243385
#        254717
#        270990
#        293158
#        309182
#
# Disc length: 4595 seconds
#
# Revision: 3
# Processed by: cddbd v1.5.2PL0 Copyright (c) Steve Scherf et al.
# Submitted via: ExactAudioCopy v0.90b4
#
DISCID=cd11f110
DTITLE=Various Artist - Fill Your Head With Blues [CD1]
DYEAR=2001
DGENRE=Blues
TTITLE0=Eric Clapton - Blues Before Sunrise
TTITLE1=John Hammond - You Don't Love Me
TTITLE2=Fleetwood Mac - Need Your Love So Bad
TTITLE3=Cuby and The Blizzards - The Big Bell
TTITLE4=B.B. King - The Thrill Is Gone
TTITLE5=Coco Montoya - Someday After Awhile
TTITLE6=Buddy Guy - Five Long Years
TTITLE7=Stevie Ray Vaughan and Double Trouble - Little Wing
TTITLE8=Livin' Blues - Wang Dang Doodle
TTITLE9=BBM - High Cost Of Loving
TTITLE10=Jethro Tull - Some Day The Sun Won't Shine For You
TTITLE11=Brainbox - Sinner's Prayer
TTITLE12=Taste - Railway And Gun
TTITLE13=Canned Heat - On The Road Again
TTITLE14=John Mayall's Bluesbreakers - All Your Love
TTITLE15=Blues Brothers - Sweet Home Chicago
EXTD=
EXTT0=
EXTT1=
EXTT2=
EXTT3=
EXTT4=
EXTT5=
EXTT6=
EXTT7=
EXTT8=
EXTT9=
EXTT10=
EXTT11=
EXTT12=
EXTT13=
EXTT14=
EXTT15=
PLAYORDER=
